<?xml version="1.0" encoding="UTF-8"?><svg id="Layer_2" xmlns="http://www.w3.org/2000/svg" viewBox="0 0 62.81 62.38"><defs><style>.cls-1{fill:#fff;}</style></defs><path class="cls-1" d="m45.19,0h-27.58C8,0,.21,7.79.21,17.4v27.58c0,9.61,7.79,17.4,17.4,17.4h27.58c9.61,0,17.4-7.79,17.4-17.4v-27.58C62.59,7.79,54.8,0,45.19,0Zm-21.98,46.86c0,.43,0,.44-.44.44h-6.49q-.39-.01-.39-.37v-11.33h-.01v-11.29c0-.42,0-.43.45-.43,2.15,0,4.31.01,6.46.01.42,0,.43,0,.43.41-.01,7.53-.01,15.05-.01,22.56Zm-3.66-25.66c-2.51,0-4.55-2.04-4.55-4.56s2.04-4.55,4.55-4.55,4.56,2.03,4.56,4.55-2.04,4.56-4.56,4.56Zm30.67,26.05c-.11.02-.21.04-.31.04h-6.62c-.31,0-.33-.02-.33-.38v-9.09c0-1.15.01-2.3-.02-3.45-.02-.81-.16-1.61-.48-2.37-.58-1.39-1.63-2.1-3.13-2.16-.65-.02-1.28.03-1.89.24-1.07.39-1.8,1.13-2.23,2.17-.27.65-.41,1.33-.44,2.04-.03.61-.05,1.21-.05,1.81-.01,3.6,0,7.19,0,10.78v.38c-.13.02-.24.03-.35.03h-6.29c-.11,0-.21-.01-.34-.02-.01-.12-.02-.22-.02-.31v-22.7q0-.37.36-.37h6.29c.11,0,.2.01.35.02v2.92s.03,0,.04.01c.04-.06.07-.1.11-.15,1.26-1.74,2.91-2.87,5.02-3.32.87-.19,1.76-.23,2.66-.15.82.07,1.63.2,2.4.48,2.32.8,3.84,2.41,4.65,4.71.31.88.5,1.79.56,2.72.03.51.06,1.02.06,1.53v14.59Z"/></svg>