<?xml version="1.0" encoding="UTF-8"?><svg id="Layer_2" xmlns="http://www.w3.org/2000/svg" viewBox="0 0 62.81 62.38"><defs><style>.cls-1{fill:#fff;}</style></defs><path class="cls-1" d="m45.19,1c9.04,0,16.4,7.36,16.4,16.4v27.58c0,9.04-7.36,16.4-16.4,16.4h-27.58c-9.04,0-16.4-7.36-16.4-16.4v-27.58C1.21,8.36,8.57,1,17.61,1h27.58m-25.64,21.2c3.07,0,5.56-2.49,5.56-5.56s-2.49-5.55-5.56-5.55-5.55,2.49-5.55,5.55,2.49,5.56,5.55,5.56m16.17,2.1v-1.33l-.93-.06h-.11c-.12-.02-.21-.02-.31-.02h-6.29c-.92,0-1.36.45-1.36,1.37v22.7c0,.1,0,.21.02.34v.05s.08.85.08.85l.85.07h.07c.13.02.24.02.35.02h6.29c.16,0,.32-.01.5-.04l.85-.13v-4.83c0-2.39,0-4.79,0-7.19,0-.52.02-1.08.05-1.77.03-.62.15-1.17.37-1.7.33-.8.87-1.33,1.63-1.61.38-.13.79-.19,1.31-.19.07,0,.15,0,.22,0,1.13.05,1.82.52,2.25,1.55.25.6.38,1.25.4,2.01.02.91.02,1.83.02,2.73v.69s0,9.09,0,9.09c0,1.14.72,1.38,1.33,1.38h6.62c.18,0,.34-.03.49-.06l.82-.15v-15.42c0-.54-.03-1.07-.06-1.59-.07-1.01-.27-2.01-.61-2.99-.93-2.65-2.7-4.44-5.25-5.32-.76-.28-1.6-.45-2.65-.54-.32-.03-.64-.04-.95-.04-.69,0-1.37.07-2.01.21-1.5.32-2.83.96-3.96,1.91m-20.83,12.3v10.33c0,1.2.78,1.35,1.39,1.37h6.49c.98,0,1.44-.46,1.44-1.44,0-7.51,0-15.03.01-22.56,0-1.26-.82-1.41-1.43-1.41-1.07,0-2.15,0-3.23,0-1.08,0-2.16,0-3.23,0-.99,0-1.45.45-1.45,1.43v12.29M45.19,0h-27.58C8,0,.21,7.79.21,17.4v27.58c0,9.61,7.79,17.4,17.4,17.4h27.58c9.61,0,17.4-7.79,17.4-17.4v-27.58C62.59,7.79,54.8,0,45.19,0h0Zm-25.64,21.2c-2.51,0-4.55-2.04-4.55-4.56s2.04-4.55,4.55-4.55,4.56,2.03,4.56,4.55-2.04,4.56-4.56,4.56h0Zm15.21,5.64c.04-.06.07-.1.11-.15,1.26-1.74,2.91-2.87,5.02-3.32.59-.13,1.19-.19,1.8-.19.29,0,.57.01.86.04.82.07,1.63.2,2.4.48,2.32.8,3.84,2.41,4.65,4.71.31.88.5,1.79.56,2.72.03.51.06,1.02.06,1.53v14.59c-.11.02-.21.04-.31.04h-6.62c-.31,0-.33-.02-.33-.38v-9.09c0-1.15.01-2.3-.02-3.45-.02-.81-.16-1.61-.48-2.37-.58-1.39-1.63-2.1-3.13-2.16-.09,0-.17,0-.26,0-.56,0-1.1.06-1.63.24-1.07.39-1.8,1.13-2.23,2.17-.27.65-.41,1.33-.44,2.04-.03.61-.05,1.21-.05,1.81-.01,3.6,0,7.19,0,10.78v.38c-.13.02-.24.03-.35.03h-6.29c-.11,0-.21-.01-.34-.02-.01-.12-.02-.22-.02-.31v-22.7q0-.37.36-.37h6.29c.11,0,.2.01.35.02v2.92s.03,0,.04.01h0Zm-18.88,8.76v-11.29c0-.42,0-.43.45-.43,2.15,0,4.31.01,6.46.01.42,0,.43,0,.43.41-.01,7.53-.01,15.05-.01,22.56,0,.43,0,.44-.44.44h-6.49q-.39-.01-.39-.37v-11.33h-.01Z"/></svg>