<?xml version="1.0" encoding="UTF-8"?><svg id="Layer_2" xmlns="http://www.w3.org/2000/svg" viewBox="0 0 62.81 68.94"><defs><style>.cls-1{fill:#fff;}</style></defs><path class="cls-1" d="m49.89,15.17c-3.12,2.54-5.29,5.85-5.2,7.36s1.18,2.25,2.47,2.37c.89.08,2.29-.45,3.76.01-1.02-.88-2.28-.63-3.23-1.15-1.21-.66-1.27-1.53-1.27-2.54,0-1.93,2.36-4.73,3.47-6.06Z"/><path class="cls-1" d="m12.42,5.33c-1.72,1.11-3.6,2.53-5.17,3.89s-2.74,2.85-3.63,4.69c-.23.47-.43.96-.47,1.48s.1,1.07.47,1.44c.57.56,2.38.54,3.17.4,4.33-.77,7.45-1.22,11.66-2.25,1.58-.39,3.04-1.01,4.69-1.11.52-.03,1.21.13,1.62.44.45.33.61.95.52,1.5s-.37,1.05-.68,1.51c-.74,1.1-1.72,2.03-2.61,3.03-.82.92-1.48,1.9-2.11,2.89s-1.14,2.59-1.14,3.36c0,1.39.82,2.81,2.34,4.04,1.1.9,2.13,1.96,3.1,2.84.91.83,1.63,2.08,1.67,3.39.05,1.76-1.09,3.94-2.24,5.27-2.13,2.45-4.52,4.05-7.35,6.43-2.48,2.09-4.68,4.64-5.33,7.81-.88,4.28,1.48,8.78,4.89,11.51-2.56-1.84-5.69-5.52-6.37-8.02-.81-2.93.72-6.04,2.43-8.11,1.58-1.91,4.02-3.85,6.37-5.5s4.63-3.39,5.95-5.94,1.25-4.82-1.51-7c-1.81-1.43-4.56-2.06-5.49-4.14-.87-1.94.9-4.76,2.2-6.44,1.1-1.42,2.33-2.77,3.43-4.2,2.02-2.61-.14-3.28-2.88-3.28-2.4,0-6.36.87-9.74,1.62-1.78.39-6.45,1.97-8.4,1.19-2.73-1.09.98-8.25,17.09-16.89-2.28,1.36-4.29,2.72-6.48,4.13Z"/><path class="cls-1" d="m26.84,14.38c.53.22,1.03.48,1.4.84s.5.85.49,1.36c-.02.73-.51,1.48-1.03,1.99-1.69,1.66-3.59,3.4-4.58,5.31-.53,1.03-1,2.09-.72,3.21.4,1.55,2.8,3.01,4.86,3.54-1.06-.8-1.71-1.25-2.32-2.23-.65-1.05-.88-2.21-.62-3.42s.73-2.33,1.42-3.36c.83-1.23,1.64-2.34,2.71-3.35.57-.54,1.4-1.31,1.4-2.1s-.53-1.14-1.09-1.41-1.23-.3-1.92-.39Z"/><path class="cls-1" d="m34.55,14.91c-.02,1.93-2.31,3.14-5.47,6.15-.68.65-1.86,1.98-2.22,3.07-.29.89-.34,1.87.08,2.7.33.65,1.04,1.15,1.7,1.46,1.91.91,3.27,1.01,4.14,2.01.56.64,1.24,2.08,0,3.8.76-.89,1.02-1.63.94-2.45-.15-1.47-1.22-2.3-2.92-3.26-.71-.4-1.34-1.29-1.57-2.07-.37-1.28-.21-2.64.42-3.82,1.1-2.05,1.85-2.86,3.16-4.24,1.77-1.87,1.95-2.45,1.72-3.36Z"/><path class="cls-1" d="m23.31,5.07c-2.03,1.3-3.99,2.44-5.65,4.06-.39.38-.69.89-.43,1.38.36.67,1.57.78,2.6.61,4.2-.73,14.49-1.92,19.27-.03.92.36,1.52,1.18,1.43,2.08-.08.74-.59,1.44-1.09,2-1.62,1.84-3.24,3.59-4.86,5.43-.65.74-1.31,1.69-1.48,2.66-.24,1.39.42,2.65,1.61,3.41s2.44,1.26,4.21,1.26c-3.59-.87-4.47-4.86-3.41-6.99.71-1.43,2.22-3.09,3.38-4.19,1.61-1.53,3.27-3.37,2.69-4.65-1.67-3.64-16.79-1.71-19.69-1.58-1.16.05-2.6-.23-2.69-.94-.19-1.52,2.86-3.57,4.12-4.52Z"/><path class="cls-1" d="m44.7,13.15c.4,1.26-.42,2.33-1.13,3.17-.79.93-1.82,1.64-2.71,2.49s-1.38,1.4-1.84,2.54c-.55,1.35-.61,2.73.66,3.73.92.72,2.36,1.1,4.56.77-2.91-.88-3.54-2.58-3.54-3.91,0-2.6,1.12-4.28,4.09-6,.92-.53,1.36-1.18.88-2.06-.19-.35-.58-.59-.97-.71Z"/><path class="cls-1" d="m55.26,14.28c-2.71,1.74-3.79,2.74-4.82,4.34-.51.8-.85,1.76-.75,2.7s.66,1.89,1.88,2.18c1.61.39,2.68-.13,3.9-.43,3.84-.95,6.19.61,5.69,2.56.86-1.77-.96-3.97-7.23-3.34-1.21.12-2.75-.26-2.75-2.08,0-1.72,2.01-4.13,4.07-5.93Z"/></svg>