<?xml version="1.0" encoding="UTF-8"?><svg id="Layer_2" xmlns="http://www.w3.org/2000/svg" viewBox="0 0 231.27 238.15"><defs><style>.cls-1{fill:#fff;}</style></defs><path class="cls-1" d="m177.66,52.62c-10.62,8.65-17.99,19.89-17.69,25.03s4.01,7.64,8.38,8.05c3.03.28,7.8-1.52,12.79.05-3.48-2.99-7.76-2.14-10.97-3.91-4.1-2.26-4.31-5.2-4.31-8.62,0-6.56,8.01-16.1,11.79-20.6Z"/><path class="cls-1" d="m50.23,19.17c-5.85,3.77-12.25,8.61-17.57,13.22s-9.33,9.69-12.35,15.96c-.77,1.6-1.45,3.27-1.58,5.04s.34,3.65,1.6,4.89c1.93,1.89,8.1,1.82,10.77,1.35,14.71-2.62,25.33-4.15,39.65-7.65,5.36-1.31,10.35-3.44,15.96-3.76,1.75-.1,4.1.46,5.51,1.5,1.52,1.13,2.07,3.24,1.78,5.11-.29,1.87-1.27,3.57-2.32,5.14-2.51,3.76-5.86,6.91-8.86,10.29-2.77,3.12-5.02,6.45-7.19,9.82s-3.88,8.79-3.88,11.43c0,4.72,2.8,9.56,7.95,13.75,3.74,3.04,7.25,6.66,10.55,9.67,3.09,2.82,5.54,7.06,5.67,11.52.18,5.97-3.7,13.4-7.62,17.91-7.24,8.32-15.36,13.78-24.98,21.86-8.44,7.09-15.91,15.77-18.13,26.57-3,14.55,5.02,29.85,16.63,39.12-8.71-6.25-19.33-18.78-21.68-27.26-2.75-9.95,2.46-20.52,8.27-27.57,5.36-6.5,13.66-13.1,21.65-18.7,7.99-5.6,15.75-11.53,20.24-20.2,4.49-8.66,4.26-16.39-5.12-23.8-6.17-4.87-15.51-7-18.67-14.09-2.95-6.61,3.04-16.17,7.47-21.9,3.74-4.84,7.93-9.42,11.67-14.27,6.86-8.88-.47-11.16-9.78-11.16-8.16,0-21.61,2.98-33.13,5.52-6.07,1.34-21.94,6.69-28.57,4.04-9.3-3.71,3.35-28.05,58.1-57.43-7.75,4.64-14.59,9.26-22.03,14.06Z"/><path class="cls-1" d="m99.27,49.96c1.8.75,3.51,1.63,4.74,2.87s1.71,2.89,1.66,4.63c-.06,2.5-1.72,5.03-3.5,6.78-5.76,5.63-12.22,11.54-15.57,18.05-1.8,3.49-3.41,7.11-2.43,10.91,1.35,5.28,9.51,10.23,16.52,12.03-3.59-2.71-5.83-4.25-7.87-7.57-2.2-3.57-3-7.52-2.11-11.62s2.49-7.94,4.83-11.41c2.81-4.18,5.56-7.95,9.23-11.4,1.95-1.83,4.77-4.47,4.77-7.14s-1.81-3.89-3.72-4.79c-1.9-.9-4.19-1.03-6.55-1.34Z"/><path class="cls-1" d="m125.47,51.77c-.08,6.58-7.87,10.68-18.59,20.91-2.31,2.2-6.32,6.74-7.53,10.45-.99,3.03-1.17,6.36.28,9.19,1.13,2.2,3.55,3.9,5.78,4.96,6.5,3.09,11.11,3.45,14.08,6.85,1.9,2.18,4.21,7.07.02,12.92,2.59-3.03,3.48-5.55,3.19-8.33-.51-5.01-4.14-7.83-9.94-11.1-2.43-1.37-4.55-4.37-5.32-7.05-1.26-4.37-.72-8.98,1.43-12.98,3.74-6.98,6.31-9.71,10.76-14.4,6.03-6.35,6.64-8.35,5.84-11.42Z"/><path class="cls-1" d="m87.27,18.31c-6.9,4.41-13.55,8.28-19.22,13.81-1.34,1.31-2.34,3.04-1.46,4.69,1.21,2.28,5.33,2.67,8.83,2.06,14.27-2.49,49.26-6.53,65.52-.09,3.12,1.23,5.16,4.02,4.85,7.08-.26,2.52-2.02,4.91-3.69,6.81-5.51,6.25-11.01,12.2-16.52,18.45-2.22,2.52-4.44,5.75-5.02,9.06-.83,4.72,1.43,9,5.46,11.59s8.28,4.28,14.31,4.28c-12.22-2.95-15.19-16.52-11.59-23.77,2.41-4.85,7.55-10.51,11.48-14.25,5.47-5.21,11.13-11.45,9.13-15.82-5.67-12.39-57.09-5.81-66.94-5.36-3.95.18-8.84-.79-9.15-3.19-.66-5.16,9.72-12.13,14.02-15.36Z"/><path class="cls-1" d="m160,45.77c1.35,4.28-1.44,7.93-3.86,10.77-2.7,3.18-6.2,5.58-9.22,8.45-3.03,2.87-4.68,4.78-6.25,8.64-1.86,4.59-2.08,9.29,2.26,12.68,3.12,2.44,8.02,3.74,15.5,2.62-9.9-3-12.02-8.78-12.02-13.3,0-8.83,3.8-14.54,13.92-20.41,3.12-1.81,4.64-4.01,2.99-7.02-.66-1.2-1.96-2.02-3.31-2.42Z"/><path class="cls-1" d="m195.91,49.61c-9.21,5.9-12.88,9.3-16.38,14.76-1.75,2.73-2.89,5.97-2.55,9.19s2.23,6.41,6.39,7.42c5.49,1.33,9.12-.44,13.26-1.47,13.06-3.24,21.07,2.09,19.36,8.71,2.92-6.02-3.26-13.5-24.59-11.37-4.11.41-9.34-.89-9.34-7.07,0-5.85,6.83-14.04,13.85-20.18Z"/></svg>